HIERARCHY
ROOT Hips
{
	OFFSET 0.00000 0.00000 0.00000
	CHANNELS 6 Xposition Yposition Zposition Zrotation Yrotation Xrotation 
	JOINT LHipJoint
	{
		OFFSET 0 0 0
		CHANNELS 3 Zrotation Yrotation Xrotation
		JOINT LeftHip
		{
			OFFSET 1.92384 -1.64427 0.83032
			CHANNELS 3 Zrotation Yrotation Xrotation
			JOINT LeftKnee
			{
				OFFSET 2.52872 -6.94761 0.00000
				CHANNELS 3 Zrotation Yrotation Xrotation
				JOINT LeftAnkle
				{
					OFFSET 2.51827 -6.91890 0.00000
					CHANNELS 3 Zrotation Yrotation Xrotation
					JOINT LeftToe
					{
						OFFSET 0.22757 -0.62524 2.06528
						CHANNELS 3 Zrotation Yrotation Xrotation
						End Site
						{
							OFFSET 0.00000 -0.00000 1.08218
						}
					}
				}
			}
		}
	}
	JOINT RHipJoint
	{
		OFFSET 0 0 0
		CHANNELS 3 Zrotation Yrotation Xrotation
		JOINT RightHip
		{
			OFFSET -2.09517 -1.64427 0.83032
			CHANNELS 3 Zrotation Yrotation Xrotation
			JOINT RightKnee
			{
				OFFSET -2.55173 -7.01082 0.00000
				CHANNELS 3 Zrotation Yrotation Xrotation
				JOINT RightAnkle
				{
					OFFSET -2.50265 -6.87598 0.00000
					CHANNELS 3 Zrotation Yrotation Xrotation
					JOINT RightToe
					{
						OFFSET -0.22612 -0.62126 1.98677
						CHANNELS 3 Zrotation Yrotation Xrotation
						End Site
						{
							OFFSET -0.00000 -0.00000 1.04433
						}
					}
				}
			}
		}
	}
	JOINT lowerback
	{
		OFFSET 0 0 0
		CHANNELS 3 Zrotation Yrotation Xrotation
		JOINT Chest
		{
			OFFSET 0.02839 1.68926 0.31690
			CHANNELS 3 Zrotation Yrotation Xrotation
			JOINT Chest2
			{
				OFFSET -0.01522 1.70183 0.21192
				CHANNELS 3 Zrotation Yrotation Xrotation
				JOINT lowerneck
				{
					OFFSET 0 0 0
					CHANNELS 3 Zrotation Yrotation Xrotation
					JOINT Neck
					{
						OFFSET -0.04523 1.88988 0.10630
						CHANNELS 3 Zrotation Yrotation Xrotation
						JOINT Head
						{
							OFFSET 0.05172 1.78070 -0.56858
							CHANNELS 3 Zrotation Yrotation Xrotation
							End Site
							{
								OFFSET 0.01532 1.90392 -0.20434
							}
						}
					}
				}
				JOINT LeftCollar
				{
					OFFSET 0 0 0
					CHANNELS 3 Zrotation Yrotation Xrotation
					JOINT LeftShoulder
					{
						OFFSET 3.25522 0.75486 0.22086
CHANNELS 3 Zrotation Xrotation Yrotation
						JOINT LeftElbow
						{
OFFSET 0 -4.856450 0.000000
CHANNELS 3 Zrotation Xrotation Yrotation
							JOINT LeftWrist
							{
OFFSET 0 -2.798740 0.000000
CHANNELS 3 Zrotation Xrotation Yrotation
								JOINT lhand
								{
									OFFSET 0 0 0
CHANNELS 3 Zrotation Xrotation Yrotation
									JOINT LFingers
									{
OFFSET 0 -0.573400 0.000000
CHANNELS 3 Zrotation Xrotation Yrotation
										End Site
										{
OFFSET 0 -0.462290 0.000000
										}
									}
								}
								JOINT LThumb
								{
OFFSET 0 0.000000 0.000000
CHANNELS 3 Zrotation Xrotation Yrotation
									End Site
									{
OFFSET 0 -0.469350 0.469350
									}
								}
							}
						}
					}
				}
				JOINT RightCollar
				{
					OFFSET 0 0 0
					CHANNELS 3 Zrotation Yrotation Xrotation
					JOINT RightShoulder
					{
						OFFSET -3.29079 0.52751 0.36356
CHANNELS 3 Zrotation Xrotation Yrotation
						JOINT RightElbow
						{
OFFSET 0 -4.670180 0.000000
CHANNELS 3 Zrotation Xrotation Yrotation
							JOINT RightWrist
							{
OFFSET 0 -2.655340 0.000000
CHANNELS 3 Zrotation Xrotation Yrotation
								JOINT rhand
								{
									OFFSET 0 0 0
CHANNELS 3 Zrotation Xrotation Yrotation
									JOINT RFingers
									{
OFFSET 0 -0.594070 0.000000
CHANNELS 3 Zrotation Xrotation Yrotation
										End Site
										{
OFFSET 0 -0.478950 0.000000
										}
									}
								}
								JOINT RThumb
								{
OFFSET 0 0.000000 0.000000
CHANNELS 3 Zrotation Xrotation Yrotation
									End Site
									{
OFFSET 0 -0.486270 0.486270
									}
								}
							}
						}
					}
				}
			}
		}
	}
}
MOTION
Frames: 11
Frame Time: 0.008333333333333333
4.175215 17.090254 44.419072 0.542321 22.338950 36.093187 0.000000 0.000000 0.000000 -8.348261 -30.542868 -39.933650 1.086142 6.623657 18.605094 -0.274322 10.478380 -9.126511 0.901459 -6.050794 -16.931776 0.000000 0.000000 0.000000 9.864006 22.904785 -39.116758 -1.514472 -7.771537 22.022316 -0.157150 -13.851275 -21.387425 0.000000 0.001512 -0.004125 2.246611 1.334322 -21.043725 -2.252726 1.749984 -16.380892 -3.453003 0.719586 -6.143138 18.837116 13.436098 -3.394775 -1.799667 17.410418 25.319160 -1.565117 9.746673 10.610909 0.000000 0.000000 0.000000 35.334539 21.279052 -90.925943 52.001235 -53.767193 27.781592 20.670991 3.048542 -31.443231 0.000000 0.000000 0.000000 -7.125000 0.000000 0.000000 -13.503053 62.648220 5.845479 0.000000 0.000000 0.000000 -22.877915 35.722451 72.711304 -54.005047 -54.488380 -29.404366 -22.853306 -13.090857 32.951805 0.000000 0.000000 0.000000 7.125000 0.000000 0.000000 12.118874 64.716277 -5.819440
4.177692 17.085793 44.414993 0.640837 22.388703 36.439837 0.000000 0.000000 0.000000 -8.167170 -30.761564 -40.287657 1.076856 6.596097 18.524215 -0.285035 10.575167 -9.027303 0.902401 -6.053871 -16.940706 0.000000 0.000000 0.000000 9.619539 22.882425 -39.637196 -1.543708 -7.842881 22.237751 -0.168989 -13.803094 -21.446470 0.000000 -0.007986 0.021872 2.219585 1.325200 -21.160609 -2.337401 1.743842 -16.483222 -3.531912 0.713767 -6.205237 18.846493 13.398151 -3.619549 -1.911114 17.332503 25.270115 -1.601681 9.693686 10.636004 0.000000 0.000000 0.000000 36.439526 22.196603 -91.255908 55.134786 -54.862692 30.327435 19.804672 1.102535 -30.586338 0.000000 0.000000 0.000000 -7.125000 0.000000 0.000000 -13.859878 61.589231 5.655280 0.000000 0.000000 0.000000 -22.765485 36.475049 72.214387 -54.343191 -54.603632 -29.679862 -20.734714 -15.012539 31.690540 0.000000 0.000000 0.000000 7.125000 0.000000 0.000000 13.614136 62.908870 -5.972210
4.177457 17.081725 44.411268 0.717755 22.320639 36.728379 0.000000 0.000000 0.000000 -8.034432 -30.895839 -40.593916 1.071750 6.580985 18.479874 -0.296997 10.704505 -8.972113 0.899653 -6.044953 -16.914884 0.000000 0.000000 0.000000 9.375986 22.923749 -40.093856 -1.569854 -7.905830 22.428351 -0.178079 -13.738623 -21.457000 0.000000 0.001232 -0.003501 2.113195 1.325907 -21.225105 -2.410770 1.761436 -16.561556 -3.550364 0.727697 -6.264130 18.874301 13.351491 -3.900984 -2.025485 17.229561 25.262365 -1.640023 9.630148 10.686602 0.000000 0.000000 0.000000 37.667155 23.110893 -91.654561 58.761551 -55.967080 33.313463 18.437338 -0.712012 -29.455743 0.000000 0.000000 0.000000 -7.125000 0.000000 0.000000 -14.592528 60.151811 5.461937 0.000000 0.000000 0.000000 -22.808335 37.215380 71.763559 -54.905566 -54.791936 -30.138848 -17.975159 -17.469001 29.807234 0.000000 0.000000 0.000000 7.125000 0.000000 0.000000 15.336098 60.384944 -5.830444
4.176180 17.078130 44.410350 0.752645 22.234308 36.964754 0.000000 0.000000 0.000000 -7.877791 -30.997594 -40.878027 1.070350 6.576845 18.467726 -0.309240 10.843650 -8.940530 0.896340 -6.034015 -16.883254 0.000000 0.000000 0.000000 9.192270 22.990072 -40.462729 -1.588746 -7.951116 22.565584 -0.185065 -13.679608 -21.453925 0.000000 0.007765 -0.021470 1.989831 1.315989 -21.308101 -2.450215 1.766929 -16.613496 -3.522863 0.739660 -6.284573 18.904986 13.304303 -4.204039 -2.122273 17.118090 25.300894 -1.671276 9.565307 10.756499 0.000000 0.000000 0.000000 38.931055 24.012540 -92.133587 62.669007 -56.979030 36.570839 17.036162 -1.999224 -28.413463 0.000000 0.000000 0.000000 -7.125000 0.000000 0.000000 -15.421870 58.813053 5.286490 0.000000 0.000000 0.000000 -23.070584 37.936161 71.604477 -55.742900 -55.064351 -30.824181 -15.435307 -19.825280 27.366186 0.000000 0.000000 0.000000 7.125000 0.000000 0.000000 16.453376 57.448933 -5.108186
4.175524 17.075602 44.412498 0.741406 22.202357 37.157681 0.000000 0.000000 0.000000 -7.688562 -31.077685 -41.146199 1.073327 6.585866 18.494046 -0.317210 10.939261 -8.935861 0.895108 -6.030039 -16.871518 0.000000 0.000000 0.000000 9.105482 23.032999 -40.747205 -1.600092 -7.978027 22.647350 -0.190596 -13.631636 -21.449551 0.000000 0.007249 -0.020000 1.898306 1.278724 -21.455893 -2.440789 1.731126 -16.631123 -3.464105 0.731804 -6.236497 18.927527 13.263354 -4.516891 -2.195789 17.011053 25.398161 -1.690402 9.505370 10.848112 0.000000 0.000000 0.000000 40.125978 24.903294 -92.597057 66.617541 -57.828204 39.898042 16.137103 -2.592563 -27.819392 0.000000 0.000000 0.000000 -7.125000 0.000000 0.000000 -15.998394 58.037742 5.190766 0.000000 0.000000 0.000000 -23.567831 38.631090 71.856282 -56.985564 -55.451463 -31.845371 -13.804001 -21.510318 24.674990 0.000000 0.000000 0.000000 7.125000 0.000000 0.000000 16.592311 54.522995 -3.964317
4.174941 17.073448 44.414872 0.734124 22.203865 37.310560 0.000000 0.000000 0.000000 -7.536981 -31.147888 -41.371853 1.080172 6.606137 18.553517 -0.320810 10.989753 -8.956830 0.893190 -6.023752 -16.853374 0.000000 0.000000 0.000000 9.053179 23.044290 -40.972163 -1.609661 -8.000809 22.716523 -0.195720 -13.591850 -21.451603 0.000000 0.003111 -0.008469 1.802775 1.204595 -21.610056 -2.394310 1.647427 -16.619274 -3.369413 0.702085 -6.154967 18.947106 13.230595 -4.838094 -2.257710 16.915144 25.572884 -1.700727 9.453365 10.970819 0.000000 0.000000 0.000000 41.154813 25.801396 -92.834386 70.305536 -58.479698 43.031479 15.817549 -2.766013 -27.522948 0.000000 0.000000 0.000000 -7.125000 0.000000 0.000000 -16.150198 57.681763 5.102486 0.000000 0.000000 0.000000 -24.252744 39.291088 72.363715 -58.606632 -55.926218 -33.184540 -12.770871 -22.240541 22.091009 0.000000 0.000000 0.000000 7.125000 0.000000 0.000000 16.343092 51.839383 -2.815174
4.175199 17.071036 44.416232 0.764979 22.255483 37.439960 0.000000 0.000000 0.000000 -7.429903 -31.257885 -41.549620 1.087858 6.628674 18.619890 -0.322399 11.016512 -8.976283 0.890503 -6.014909 -16.827694 0.000000 0.000000 0.000000 8.997465 23.009264 -41.164258 -1.622084 -8.030063 22.805353 -0.202326 -13.565590 -21.485849 0.000000 -0.003230 0.008923 1.707907 1.095638 -21.747452 -2.329347 1.518099 -16.585350 -3.262392 0.650035 -6.058918 19.008778 13.187329 -5.116616 -2.392900 16.828706 25.779570 -1.743000 9.404161 11.110591 0.000000 0.000000 0.000000 41.985239 26.714481 -92.671740 73.609903 -58.957468 45.855743 15.620691 -3.085223 -27.114724 0.000000 0.000000 0.000000 -7.125000 0.000000 0.000000 -16.108637 57.244972 4.917942 0.000000 0.000000 0.000000 -25.034987 39.897738 72.839155 -60.439748 -56.424673 -34.707524 -11.685559 -22.093926 19.814845 0.000000 0.000000 0.000000 7.125000 0.000000 0.000000 16.394802 49.462676 -1.847634
4.175493 17.068864 44.417068 0.801555 22.312874 37.536104 0.000000 0.000000 0.000000 -7.349981 -31.368511 -41.687088 1.096187 6.653199 18.691962 -0.323936 11.039589 -8.991116 0.888371 -6.007953 -16.807513 0.000000 0.000000 0.000000 8.952862 22.967280 -41.309654 -1.633151 -8.056098 22.884562 -0.204411 -13.565801 -21.507028 -0.000054 0.036546 -0.100533 1.620827 0.989380 -21.857781 -2.256357 1.391318 -16.535806 -3.150999 0.598803 -5.957122 19.029151 13.127244 -5.446208 -2.531839 16.720470 26.078803 -1.779662 9.342465 11.289237 0.000000 0.000000 0.000000 42.643527 27.601725 -92.104208 76.633466 -59.311494 48.451184 14.906320 -4.182574 -26.447661 0.000000 0.000000 0.000000 -7.125000 0.000000 0.000000 -16.452797 56.451995 4.707581 0.000000 0.000000 0.000000 -25.807475 40.446292 73.070805 -62.416396 -56.918533 -36.359207 -10.473788 -21.611539 17.881825 0.000000 0.000000 0.000000 7.125000 0.000000 0.000000 16.763318 47.421097 -1.027374
4.173708 17.067800 44.418811 0.770884 22.276689 37.586366 0.000000 0.000000 0.000000 -7.262125 -31.377399 -41.824158 1.108881 6.690258 18.800844 -0.326126 11.080813 -9.035609 0.887556 -6.005267 -16.799623 0.000000 0.000000 0.000000 8.955051 22.994693 -41.392187 -1.634174 -8.058460 22.891698 -0.196508 -13.574741 -21.437971 -0.000544 0.147014 -0.404002 1.528844 0.924205 -21.959993 -2.165829 1.318797 -16.478757 -3.009179 0.576641 -5.846552 18.936027 13.054162 -5.879871 -2.598324 16.577117 26.495119 -1.772637 9.262662 11.510893 0.000000 0.000000 0.000000 43.169155 28.408120 -91.266390 79.494019 -59.576670 50.914639 13.423749 -6.504573 -25.598292 0.000000 0.000000 0.000000 -7.125000 0.000000 0.000000 -17.471793 55.338636 4.532664 0.000000 0.000000 0.000000 -26.502575 40.919819 73.011566 -64.579236 -57.409706 -38.176684 -9.356599 -21.564068 16.337425 0.000000 0.000000 0.000000 7.125000 0.000000 0.000000 17.215845 45.788523 -0.344109
4.169547 17.068467 44.422158 0.658223 22.104455 37.601099 0.000000 0.000000 0.000000 -7.179821 -31.233306 -41.971190 1.126016 6.740085 18.947709 -0.327323 11.127425 -9.128329 0.887039 -6.003646 -16.794982 0.000000 0.000000 0.000000 8.998623 23.116186 -41.421463 -1.622507 -8.031166 22.808676 -0.182814 -13.557642 -21.276146 -0.001595 0.258073 -0.709005 1.420710 0.906788 -22.073601 -2.060541 1.310619 -16.422149 -2.831737 0.589480 -5.727029 18.813339 12.946127 -6.267530 -2.684427 16.403623 26.883544 -1.779584 9.165113 11.709564 0.000000 0.000000 0.000000 43.587558 29.072923 -90.317308 82.173042 -59.765774 53.227076 11.485803 -10.133499 -24.766833 0.000000 0.000000 0.000000 -7.125000 0.000000 0.000000 -18.935886 54.177047 4.388738 0.000000 0.000000 0.000000 -27.094779 41.287764 72.730674 -66.933252 -57.889204 -40.165396 -8.452879 -22.391494 15.248012 0.000000 0.000000 0.000000 7.125000 0.000000 0.000000 17.645433 44.634779 0.165003
4.164409 17.069750 44.426001 0.516973 21.855860 37.608656 0.000000 0.000000 0.000000 -7.103144 -31.021785 -42.135065 1.144397 6.793097 19.103725 -0.329060 11.184896 -9.233284 0.887770 -6.005995 -16.801815 0.000000 0.000000 0.000000 9.049061 23.276265 -41.428319 -1.603417 -7.985988 22.671515 -0.168233 -13.513768 -21.070027 -0.002645 0.331236 -0.909995 1.307350 0.909510 -22.198272 -1.957987 1.329067 -16.372579 -2.649937 0.615733 -5.609125 18.717267 12.790881 -6.537380 -2.832375 16.195588 27.174124 -1.831118 9.048558 11.852670 0.000000 0.000000 0.000000 43.898001 29.564100 -89.316244 84.619163 -59.889636 55.341842 9.517739 -14.870759 -24.242451 0.000000 0.000000 0.000000 -7.125000 0.000000 0.000000 -20.567307 53.324833 4.355789 0.000000 0.000000 0.000000 -27.584006 41.507778 72.327995 -69.290827 -58.315053 -42.166904 -7.666322 -23.857070 14.618279 0.000000 0.000000 0.000000 7.125000 0.000000 0.000000 18.126937 43.943835 0.489742
